<svg xmlns="http://www.w3.org/2000/svg" viewBox="0 0 540 297"><defs><style>.cls-1{fill:#f36f20;}</style></defs><g id="Layer_2" data-name="Layer 2"><g id="Layer_1-2" data-name="Layer 1"><line class="cls-1" x1="273.17" y1="180" x2="266.83" y2="180"/><polygon class="cls-1" points="306 140.67 306 82.9 270 54.01 234 82.9 234 140.67 270 169.56 306 140.67"/><polygon class="cls-1" points="315 44.81 314.89 45 299.62 45 291.67 45 248.33 45 240.38 45 225.11 45 225 44.81 248.33 18 293.33 18 315 44.81"/><polygon class="cls-1" points="279 18 288 18 297 9 324 9 315 0 297 0 279 18"/><polygon class="cls-1" points="261 18 252 18 243 9 216 9 225 0 243 0 261 18"/><polygon class="cls-1" points="432 90 432 108 441 108 441 99 479.48 99 491.59 90 432 90"/><polygon class="cls-1" points="414 72 414 108 423 108 423 81 503.69 81 515.79 72 414 72"/><polygon class="cls-1" points="335.33 90 347.17 99 396 99 396 108 405 108 405 63 527.9 63 540 54 396 54 396 90 335.33 90"/><polygon class="cls-1" points="311.67 72 323.5 81 387 81 387 54 378 54 378 72 311.67 72"/><polygon class="cls-1" points="288 54 299.83 63 369 63 369 54 288 54"/><polygon class="cls-1" points="108 90 108 108 99 108 99 99 60.52 99 48.41 90 108 90"/><polygon class="cls-1" points="126 72 126 108 117 108 117 81 36.31 81 24.21 72 126 72"/><polygon class="cls-1" points="204.67 90 192.83 99 144 99 144 108 135 108 135 63 12.1 63 0 54 144 54 144 90 204.67 90"/><polygon class="cls-1" points="228.33 72 216.5 81 153 81 153 54 162 54 162 72 228.33 72"/><polygon class="cls-1" points="252 54 240.17 63 171 63 171 54 252 54"/><path class="cls-1" d="M324,108v17.12l8,6v92.3l-62,46.16-62-46.16v-92.3l8-6V108l-18,13.85V232.62L270,288l72-55.38V121.85Z"/><rect class="cls-1" x="261" y="207" width="18" height="69"/><polygon class="cls-1" points="244.4 162 266.83 180 198 180 198 162 244.4 162"/><polygon class="cls-1" points="342 162 342 180 273.17 180 295.6 162 342 162"/><rect class="cls-1" x="207" y="207" width="126" height="27"/><polygon class="cls-1" points="270 297 261 270 279 270 270 297"/></g></g></svg>